<?xml version="1.0" encoding="utf-8"?>
<!-- Generator: Adobe Illustrator 23.0.2, SVG Export Plug-In . SVG Version: 6.00 Build 0)  -->
<svg version="1.1" xmlns="http://www.w3.org/2000/svg" xmlns:xlink="http://www.w3.org/1999/xlink" x="0px" y="0px"
	 viewBox="0 0 595.28 841.89" style="enable-background:new 0 0 595.28 841.89;" xml:space="preserve">
<style type="text/css">
	.st0{fill:#D9A636;}
	.st1{fill:#DBD9D9;}
</style>
<g id="Lager_1">
</g>
<g id="Lager_5">
</g>
<g id="Lager_4">
</g>
<g id="Lager_2">
</g>
<g id="Lager_7">
</g>
<g id="Lager_6">
	<g>
		<g>
			<path class="st0" d="M43.34,709.26h33.76c2.17,0,4.55,0.2,7.12,0.59s4.91,1.26,6.99,2.59c2.08,1.33,3.69,3.02,4.85,5.06
				c1.15,2.04,1.73,4.34,1.73,6.9c0,4.16-1.48,7.52-4.45,10.1c-2.97,2.58-6.48,4.26-10.53,5.04l11.26,13.1l0.47,0.59
				c0.73,0.89,1.4,1.55,2,1.98c0.6,0.43,1.2,0.74,1.8,0.92c0.6,0.18,1.44,0.27,2.51,0.27h2.35v7.57H85.66L68.09,740.4h-4.55v10.9
				c0,1.88,0.1,3.08,0.31,3.59s0.54,0.89,1,1.14s1.38,0.37,2.77,0.37h2.51v7.57H43.34v-7.57h2.45c1.29,0,2.2-0.14,2.74-0.41
				c0.54-0.27,0.94-0.69,1.2-1.24c0.13-0.31,0.2-1.29,0.2-2.94v-30.79c0-1.2-0.1-2.06-0.3-2.57c-0.2-0.51-0.52-0.84-0.97-1
				c-0.63-0.29-1.35-0.43-2.17-0.43l-1.1,0.04h-2.05V709.26z M63.54,718.24v14.16h8.12c3.19,0,5.58-0.29,7.16-0.88
				s2.77-1.43,3.57-2.53s1.2-2.43,1.2-4c0-1.44-0.37-2.67-1.12-3.71c-0.75-1.03-1.8-1.8-3.18-2.29c-1.37-0.5-3.61-0.75-6.73-0.75
				H63.54z"/>
			<path class="st0" d="M124.66,732.42c4.92,0,8.9,1.5,11.95,4.49c3.05,2.99,4.57,6.84,4.57,11.54c0,3.16-0.7,5.96-2.09,8.4
				c-1.39,2.44-3.32,4.33-5.77,5.66c-2.45,1.33-5.41,1.99-8.88,1.99c-4.58,0-8.33-1.26-11.25-3.78c-3.53-3.04-5.29-7.1-5.29-12.18
				c0-4.73,1.54-8.6,4.63-11.6C115.63,733.93,119.67,732.42,124.66,732.42z M124.75,737.36c-2.36,0-4.23,0.88-5.63,2.65
				c-1.75,2.22-2.62,5.09-2.62,8.6c0,3.51,0.82,6.29,2.44,8.34c1.41,1.75,3.27,2.62,5.58,2.62c2.33,0,4.19-0.87,5.58-2.62
				c1.65-2.09,2.47-4.88,2.47-8.38c0-2.46-0.35-4.53-1.06-6.2c-0.7-1.68-1.66-2.93-2.86-3.76
				C127.46,737.77,126.16,737.36,124.75,737.36z"/>
			<path class="st0" d="M140.03,732.96h15.4v4.29h-1.16c-0.82,0-1.33,0.06-1.53,0.19c-0.21,0.13-0.31,0.33-0.31,0.61
				c0,0.38,0.24,0.96,0.71,1.73l4.07,6.73l4.53-7.02c0.4-0.61,0.62-0.95,0.67-1.02c0.06-0.16,0.09-0.33,0.09-0.49
				c0-0.25-0.08-0.44-0.25-0.56c-0.17-0.12-0.57-0.18-1.19-0.18h-1.58v-4.29h12.36v4.29c-1.08,0.01-1.84,0.14-2.28,0.38
				c-0.44,0.24-0.96,0.81-1.57,1.71l-8.27,12.05v5.54c0,0.98,0.06,1.61,0.19,1.9c0.13,0.29,0.34,0.5,0.65,0.64
				c0.31,0.14,0.91,0.21,1.8,0.21h1.09v4.29h-15.14v-4.29h0.82c1.07,0,1.75-0.07,2.04-0.21c0.3-0.14,0.52-0.38,0.68-0.71
				c0.16-0.33,0.23-1,0.23-2.01v-4.85l-8.25-12.56c-0.65-0.98-1.22-1.59-1.71-1.85c-0.36-0.16-1.06-0.25-2.11-0.25V732.96z"/>
			<path class="st0" d="M179.38,732.96h6.97l9.31,23.94c0.5,1.27,0.95,2.06,1.34,2.36c0.39,0.3,1.11,0.44,2.17,0.42v4.29h-14.67
				v-4.29l0.89-0.02c0.81,0,1.39-0.11,1.71-0.32c0.33-0.22,0.49-0.48,0.49-0.79c0-0.27-0.14-0.82-0.42-1.65l-0.92-2.82h-9.43
				l-1.16,3.13c-0.24,0.67-0.35,1.1-0.35,1.31c0,0.24,0.08,0.45,0.25,0.65c0.17,0.19,0.45,0.33,0.83,0.42
				c0.25,0.06,0.95,0.09,2.09,0.09v4.29h-12.01v-4.29c0.77,0,1.33-0.07,1.69-0.2c0.35-0.13,0.65-0.33,0.88-0.6
				c0.23-0.27,0.49-0.76,0.77-1.49L179.38,732.96z M178.45,749.65h6.16l-3-8.52L178.45,749.65z"/>
			<path class="st0" d="M201.05,732.96h15.14v4.29h-1.33c-0.74,0-1.2,0.04-1.39,0.11c-0.35,0.15-0.61,0.37-0.77,0.68
				s-0.24,0.79-0.24,1.46v17.72c0,0.71,0.03,1.15,0.1,1.31c0.07,0.16,0.2,0.29,0.41,0.39c0.21,0.1,0.61,0.15,1.2,0.15
				c1.99,0,3.58-0.26,4.79-0.78c1.21-0.52,2.3-1.35,3.27-2.5c0.97-1.15,1.8-2.71,2.5-4.68l4.09,1.4l-4.09,11.47h-23.68v-4.29h1.48
				c0.6,0,1.06-0.08,1.37-0.25c0.31-0.16,0.53-0.38,0.67-0.66c0.14-0.27,0.21-0.75,0.21-1.43v-17.56c0-0.74-0.07-1.27-0.21-1.6
				c-0.14-0.33-0.34-0.56-0.6-0.71c-0.26-0.15-0.69-0.22-1.29-0.22h-1.64V732.96z"/>
			<path class="st0" d="M303.85,709.26l4.71,18.36l-7.33,2.08c-2.43-4.38-5.18-7.59-8.26-9.62c-3.08-2.03-6.36-3.05-9.83-3.05
				c-2.25,0-4.01,0.46-5.31,1.37c-1.29,0.92-1.94,1.94-1.94,3.06c0,1.28,0.59,2.47,1.76,3.57c1.15,1.1,3.27,2.08,6.35,2.94
				l10.51,3.06c5.83,1.68,9.99,3.9,12.47,6.67c2.46,2.8,3.69,6.06,3.69,9.77c0,4.74-1.88,8.74-5.65,12.01
				c-4.21,3.61-9.44,5.42-15.69,5.42c-2.9,0-5.57-0.37-8-1.12c-2.43-0.75-4.97-1.99-7.61-3.75l-1.73,3.92h-5.84l-3.88-21.22
				l7.33-1.76c1.73,4.31,4.41,7.92,8.06,10.81c3.65,2.89,7.65,4.33,12.02,4.33c1.96,0,3.59-0.25,4.88-0.75
				c1.29-0.5,2.27-1.19,2.92-2.08c0.65-0.89,0.98-1.8,0.98-2.75c0-1.57-0.76-2.92-2.27-4.04c-1.54-1.12-4.24-2.24-8.08-3.33
				l-9.15-2.66c-1.39-0.39-3.26-1.13-5.63-2.22c-2.36-1.09-4.18-2.22-5.45-3.39c-1.27-1.18-2.32-2.69-3.16-4.53
				c-0.84-1.84-1.26-3.79-1.26-5.83c0-2.9,0.8-5.58,2.41-8.02s4.03-4.43,7.26-5.94c3.23-1.52,6.8-2.27,10.73-2.27
				c4.73,0,9.01,1.23,12.83,3.69l1.53-2.75H303.85z"/>
			<path class="st0" d="M335.62,729.88c5.32,0,9.62,1.62,12.91,4.85c3.29,3.24,4.94,7.39,4.94,12.47c0,3.41-0.75,6.44-2.26,9.08
				c-1.51,2.64-3.58,4.68-6.23,6.11s-5.85,2.15-9.6,2.15c-4.95,0-9-1.36-12.16-4.08c-3.81-3.28-5.72-7.67-5.72-13.17
				c0-5.11,1.67-9.29,5.01-12.54C325.86,731.51,330.23,729.88,335.62,729.88z M335.72,735.21c-2.55,0-4.57,0.95-6.08,2.86
				c-1.89,2.4-2.83,5.5-2.83,9.3c0,3.8,0.88,6.8,2.64,9.01c1.52,1.89,3.53,2.83,6.03,2.83c2.52,0,4.53-0.94,6.03-2.83
				c1.78-2.26,2.67-5.28,2.67-9.06c0-2.66-0.38-4.89-1.14-6.7c-0.76-1.81-1.79-3.16-3.09-4.06
				C338.65,735.66,337.24,735.21,335.72,735.21z"/>
			<path class="st0" d="M355.18,730.46h16.36v4.64h-1.43c-0.8,0-1.3,0.04-1.51,0.12c-0.38,0.16-0.66,0.41-0.84,0.73
				c-0.17,0.33-0.26,0.85-0.26,1.57v19.15c0,0.77,0.04,1.24,0.11,1.42c0.07,0.18,0.22,0.32,0.44,0.42c0.22,0.1,0.66,0.16,1.3,0.16
				c2.15,0,3.87-0.28,5.18-0.84s2.48-1.46,3.53-2.7c1.05-1.24,1.95-2.93,2.7-5.06l4.42,1.51l-4.42,12.4h-25.59v-4.64h1.6
				c0.65,0,1.15-0.09,1.48-0.26c0.34-0.18,0.58-0.41,0.73-0.71c0.15-0.3,0.23-0.81,0.23-1.55v-18.98c0-0.8-0.08-1.38-0.23-1.73
				c-0.15-0.35-0.37-0.61-0.65-0.77c-0.28-0.16-0.74-0.24-1.4-0.24h-1.77V730.46z"/>
			<path class="st0" d="M385.57,730.46h16.36v4.64h-1.61c-0.74,0-1.26,0.09-1.57,0.26c-0.31,0.18-0.54,0.43-0.68,0.76
				c-0.14,0.33-0.22,1-0.22,2.01v12.2c0,2.27,0.23,3.97,0.68,5.09s1.15,1.97,2.07,2.56c0.92,0.59,2.04,0.88,3.36,0.88
				c1.32,0,2.49-0.32,3.51-0.96c1.03-0.64,1.76-1.45,2.2-2.44c0.44-0.99,0.66-2.61,0.66-4.89v-13.45c0-0.56-0.07-0.96-0.22-1.2
				c-0.19-0.32-0.45-0.54-0.77-0.67c-0.22-0.1-0.79-0.14-1.71-0.14h-1.3v-4.64h13.84v4.64h-1.08c-1.07,0-1.74,0.06-1.99,0.19
				c-0.38,0.19-0.67,0.47-0.84,0.84c-0.13,0.24-0.19,0.9-0.19,1.99v13.21c0,2.43-0.35,4.48-1.06,6.13
				c-0.98,2.24-2.53,3.98-4.67,5.23c-2.14,1.24-4.67,1.86-7.6,1.86c-2.07,0-3.92-0.32-5.55-0.95c-1.63-0.63-3.06-1.54-4.29-2.71
				c-1.23-1.18-2.08-2.42-2.57-3.74c-0.49-1.31-0.73-3.25-0.73-5.81v-12.95c0-1.18-0.07-1.95-0.19-2.29
				c-0.13-0.34-0.34-0.6-0.62-0.76c-0.29-0.16-0.85-0.24-1.68-0.24h-1.54V730.46z"/>
			<path class="st0" d="M426.26,729.33h3.17l0.34,1.13h18.88l0.41-1.13h3.19l4.16,11.75l-4.47,1.56c-0.99-1.95-1.71-3.23-2.14-3.82
				c-0.85-1.17-1.83-2.09-2.93-2.76c-0.83-0.51-1.66-0.77-2.47-0.77c-0.38,0-0.65,0.09-0.79,0.28c-0.14,0.18-0.22,0.6-0.22,1.26
				v19.27c0,1.14,0.04,1.85,0.12,2.14c0.08,0.29,0.22,0.52,0.41,0.68s0.46,0.28,0.8,0.34c0.34,0.06,1.24,0.08,2.71,0.08v4.64h-16.36
				v-4.64h0.99c1.09,0,1.8-0.07,2.1-0.2c0.31-0.14,0.54-0.38,0.7-0.72c0.16-0.34,0.24-1.06,0.24-2.15v-19.7
				c0-0.56-0.06-0.91-0.19-1.06c-0.13-0.14-0.4-0.22-0.82-0.22c-0.83,0-1.76,0.31-2.79,0.94c-1.03,0.62-1.94,1.51-2.74,2.64
				c-0.32,0.45-1,1.71-2.04,3.77l-4.4-1.56L426.26,729.33z"/>
			<path class="st0" d="M458.17,730.46h16.36v4.64h-1.49c-0.87,0-1.44,0.08-1.72,0.23c-0.28,0.15-0.49,0.39-0.63,0.72
				c-0.14,0.33-0.2,0.96-0.2,1.89v18.55c0,1.01,0.06,1.66,0.17,1.94c0.11,0.29,0.3,0.5,0.58,0.62c0.34,0.19,0.84,0.29,1.51,0.29
				h1.78v4.64h-16.36v-4.64h1.33c0.95,0,1.57-0.07,1.86-0.2c0.29-0.14,0.5-0.35,0.64-0.65c0.14-0.3,0.21-0.88,0.21-1.77V738.1
				c0-1.04-0.07-1.73-0.21-2.05c-0.14-0.33-0.37-0.58-0.69-0.76c-0.23-0.13-0.77-0.19-1.64-0.19h-1.5V730.46z"/>
			<path class="st0" d="M493.05,729.88c5.32,0,9.62,1.62,12.91,4.85c3.29,3.24,4.94,7.39,4.94,12.47c0,3.41-0.75,6.44-2.26,9.08
				c-1.51,2.64-3.58,4.68-6.23,6.11s-5.85,2.15-9.6,2.15c-4.95,0-9-1.36-12.16-4.08c-3.81-3.28-5.72-7.67-5.72-13.17
				c0-5.11,1.67-9.29,5.01-12.54C483.29,731.51,487.65,729.88,493.05,729.88z M493.15,735.21c-2.55,0-4.57,0.95-6.08,2.86
				c-1.89,2.4-2.83,5.5-2.83,9.3c0,3.8,0.88,6.8,2.64,9.01c1.52,1.89,3.53,2.83,6.03,2.83c2.52,0,4.53-0.94,6.03-2.83
				c1.78-2.26,2.67-5.28,2.67-9.06c0-2.66-0.38-4.89-1.14-6.7c-0.76-1.81-1.79-3.16-3.09-4.06
				C496.08,735.66,494.67,735.21,493.15,735.21z"/>
			<path class="st0" d="M512.51,730.46h13.6l9.83,19.55v-11.96c0-1.02-0.06-1.67-0.17-1.92c-0.16-0.38-0.38-0.65-0.65-0.81
				c-0.27-0.15-0.8-0.23-1.59-0.23h-1.63v-4.64h13.81v4.64h-1.53c-0.76,0-1.31,0.09-1.64,0.26c-0.33,0.18-0.55,0.42-0.68,0.72
				c-0.13,0.31-0.19,0.96-0.19,1.97v25.92h-6.89l-12.44-24.7v17.27c0,0.99,0.06,1.62,0.18,1.9c0.12,0.27,0.34,0.49,0.65,0.65
				s0.85,0.24,1.61,0.24h1.6v4.64h-13.86v-4.64h1.43c0.8,0,1.34-0.07,1.64-0.2c0.29-0.14,0.53-0.37,0.7-0.71s0.26-0.84,0.26-1.51
				v-19.22c0-0.74-0.08-1.28-0.24-1.62c-0.16-0.34-0.37-0.59-0.65-0.75c-0.27-0.15-0.72-0.23-1.36-0.23h-1.79V730.46z"/>
			<path class="st0" d="M573.15,730.46l2.88,11.24l-4.49,1.27c-1.49-2.68-3.17-4.65-5.06-5.89c-1.89-1.25-3.89-1.87-6.02-1.87
				c-1.38,0-2.46,0.28-3.25,0.84c-0.79,0.56-1.19,1.19-1.19,1.88c0,0.79,0.36,1.51,1.08,2.19c0.7,0.67,2,1.27,3.89,1.8l6.44,1.87
				c3.57,1.03,6.12,2.39,7.64,4.09c1.51,1.72,2.26,3.71,2.26,5.99c0,2.9-1.15,5.35-3.46,7.36c-2.58,2.21-5.78,3.32-9.61,3.32
				c-1.78,0-3.41-0.23-4.9-0.68c-1.49-0.46-3.04-1.22-4.66-2.29l-1.06,2.4h-3.58l-2.38-13l4.49-1.08c1.06,2.64,2.7,4.85,4.94,6.62
				c2.23,1.77,4.69,2.65,7.36,2.65c1.2,0,2.2-0.15,2.99-0.46s1.39-0.73,1.79-1.27s0.6-1.1,0.6-1.68c0-0.96-0.46-1.78-1.39-2.47
				c-0.95-0.69-2.6-1.37-4.95-2.04l-5.6-1.63c-0.85-0.24-2-0.69-3.45-1.36c-1.45-0.67-2.56-1.36-3.34-2.08
				c-0.78-0.72-1.42-1.65-1.93-2.77c-0.51-1.13-0.77-2.32-0.77-3.57c0-1.78,0.49-3.42,1.48-4.91c0.99-1.5,2.47-2.71,4.45-3.64
				c1.98-0.93,4.17-1.39,6.57-1.39c2.9,0,5.52,0.75,7.86,2.26l0.94-1.68H573.15z"/>
			<path class="st0" d="M205.73,780.95c4.92,0,8.9,1.5,11.95,4.49c3.05,2.99,4.57,6.84,4.57,11.54c0,3.16-0.7,5.96-2.09,8.4
				c-1.39,2.44-3.32,4.33-5.77,5.66c-2.45,1.33-5.41,1.99-8.88,1.99c-4.58,0-8.33-1.26-11.25-3.78c-3.53-3.04-5.29-7.1-5.29-12.18
				c0-4.73,1.54-8.6,4.63-11.6S200.74,780.95,205.73,780.95z M205.82,785.89c-2.36,0-4.23,0.88-5.63,2.65
				c-1.75,2.22-2.62,5.09-2.62,8.6c0,3.51,0.82,6.29,2.44,8.34c1.41,1.75,3.27,2.62,5.58,2.62c2.33,0,4.19-0.87,5.58-2.62
				c1.65-2.09,2.47-4.88,2.47-8.38c0-2.46-0.35-4.53-1.06-6.2c-0.7-1.68-1.66-2.93-2.86-3.76S207.23,785.89,205.82,785.89z"/>
			<path class="st0" d="M222.83,781.49h25.65l3.52,9.89l-4.02,1.4c-0.65-1.44-1.27-2.52-1.87-3.26s-1.3-1.34-2.11-1.83
				c-0.82-0.49-1.7-0.82-2.65-0.98c-0.64-0.1-1.76-0.16-3.38-0.16h-3.82v8.23h1.96c0.74,0,1.32-0.11,1.74-0.33
				c0.42-0.22,0.73-0.51,0.91-0.87c0.18-0.36,0.28-0.95,0.28-1.78v-1.65h4v13.87h-4v-2c0-0.58-0.05-1-0.16-1.27
				c-0.13-0.36-0.32-0.65-0.56-0.87c-0.24-0.22-0.51-0.38-0.81-0.47c-0.3-0.09-0.85-0.13-1.66-0.13h-1.71v6.51
				c0,0.78,0.07,1.31,0.2,1.59c0.13,0.27,0.35,0.48,0.64,0.61c0.3,0.13,0.87,0.2,1.71,0.2h1.27v4.29h-15.14v-4.29h1.01
				c1.12,0,1.85-0.15,2.2-0.43c0.35-0.29,0.53-0.87,0.53-1.74V788.2c0-0.82-0.07-1.36-0.2-1.62c-0.13-0.27-0.36-0.47-0.67-0.6
				c-0.31-0.13-0.93-0.2-1.86-0.2h-1.01V781.49z"/>
			<path class="st0" d="M265.5,781.49h12.58l9.09,18.1v-11.07c0-0.95-0.05-1.54-0.16-1.78c-0.15-0.36-0.35-0.6-0.6-0.75
				c-0.25-0.14-0.74-0.21-1.47-0.21h-1.51v-4.29h12.78v4.29h-1.42c-0.71,0-1.21,0.08-1.51,0.25c-0.3,0.16-0.51,0.39-0.63,0.67
				c-0.12,0.28-0.18,0.89-0.18,1.82v23.99h-6.38l-11.52-22.85v15.98c0,0.92,0.06,1.5,0.17,1.76c0.11,0.25,0.31,0.45,0.6,0.6
				c0.29,0.15,0.78,0.22,1.49,0.22h1.48v4.29H265.5v-4.29h1.33c0.74,0,1.24-0.06,1.51-0.19c0.27-0.13,0.49-0.34,0.65-0.66
				c0.16-0.31,0.24-0.78,0.24-1.4v-17.79c0-0.68-0.07-1.18-0.22-1.5c-0.15-0.32-0.35-0.55-0.6-0.69c-0.25-0.14-0.67-0.21-1.26-0.21
				h-1.66V781.49z"/>
			<path class="st0" d="M313.03,780.95c4.92,0,8.9,1.5,11.95,4.49c3.05,2.99,4.57,6.84,4.57,11.54c0,3.16-0.7,5.96-2.09,8.4
				c-1.39,2.44-3.32,4.33-5.77,5.66c-2.45,1.33-5.41,1.99-8.88,1.99c-4.58,0-8.33-1.26-11.25-3.78c-3.53-3.04-5.29-7.1-5.29-12.18
				c0-4.73,1.54-8.6,4.63-11.6S308.03,780.95,313.03,780.95z M313.12,785.89c-2.36,0-4.23,0.88-5.63,2.65
				c-1.75,2.22-2.62,5.09-2.62,8.6c0,3.51,0.82,6.29,2.44,8.34c1.41,1.75,3.27,2.62,5.58,2.62c2.33,0,4.19-0.87,5.58-2.62
				c1.65-2.09,2.47-4.88,2.47-8.38c0-2.46-0.35-4.53-1.06-6.2c-0.7-1.68-1.66-2.93-2.86-3.76S314.52,785.89,313.12,785.89z"/>
			<path class="st0" d="M329.99,781.49h19.13c1.23,0,2.58,0.11,4.04,0.33c1.46,0.22,2.78,0.71,3.96,1.47
				c1.18,0.76,2.1,1.71,2.75,2.87c0.65,1.16,0.98,2.46,0.98,3.91c0,2.36-0.84,4.26-2.52,5.72c-1.68,1.46-3.67,2.41-5.97,2.86
				l6.38,7.43l0.27,0.33c0.42,0.5,0.79,0.88,1.13,1.12c0.34,0.24,0.68,0.42,1.02,0.52c0.34,0.1,0.82,0.16,1.42,0.16h1.33v4.29h-9.94
				l-9.96-13.36h-2.58v6.18c0,1.07,0.06,1.75,0.18,2.03c0.12,0.29,0.31,0.5,0.57,0.64c0.26,0.14,0.78,0.21,1.57,0.21h1.42v4.29
				h-15.18v-4.29h1.39c0.73,0,1.25-0.08,1.55-0.23c0.31-0.16,0.53-0.39,0.68-0.7c0.07-0.18,0.11-0.73,0.11-1.67v-17.45
				c0-0.68-0.06-1.17-0.17-1.46c-0.11-0.29-0.3-0.48-0.55-0.57c-0.36-0.16-0.77-0.25-1.23-0.25l-0.63,0.02h-1.16V781.49z
				 M341.44,786.58v8.03h4.6c1.81,0,3.16-0.17,4.06-0.5c0.9-0.34,1.57-0.81,2.02-1.43c0.45-0.62,0.68-1.38,0.68-2.27
				c0-0.82-0.21-1.51-0.63-2.1c-0.42-0.59-1.02-1.02-1.8-1.3c-0.78-0.28-2.05-0.42-3.81-0.42H341.44z"/>
			<path class="st0" d="M366.85,780.44h2.93l0.31,1.04h17.47l0.38-1.04h2.96l3.85,10.87l-4.13,1.45c-0.92-1.81-1.58-2.99-1.98-3.53
				c-0.78-1.08-1.69-1.93-2.71-2.56c-0.77-0.47-1.53-0.71-2.29-0.71c-0.36,0-0.6,0.08-0.73,0.25c-0.13,0.17-0.2,0.56-0.2,1.17v17.83
				c0,1.05,0.04,1.71,0.11,1.98c0.07,0.27,0.2,0.48,0.38,0.63c0.18,0.16,0.42,0.26,0.74,0.31c0.31,0.05,1.15,0.08,2.51,0.08v4.29
				h-15.14v-4.29h0.92c1.01,0,1.66-0.06,1.95-0.19c0.28-0.13,0.5-0.35,0.65-0.67c0.15-0.32,0.22-0.98,0.22-1.99v-18.23
				c0-0.52-0.06-0.84-0.18-0.98c-0.12-0.13-0.37-0.2-0.76-0.2c-0.77,0-1.63,0.29-2.58,0.87c-0.95,0.58-1.79,1.39-2.53,2.44
				c-0.3,0.42-0.92,1.58-1.89,3.49l-4.07-1.45L366.85,780.44z"/>
			<path class="st0" d="M395.53,781.49h15.14v4.29h-1.39c-0.77,0-1.29,0.08-1.57,0.23c-0.28,0.16-0.48,0.38-0.6,0.67
				c-0.12,0.29-0.18,0.92-0.18,1.88v5.4h11.29v-5.8c0-0.71-0.04-1.19-0.13-1.44c-0.12-0.36-0.32-0.6-0.6-0.73
				c-0.28-0.13-0.9-0.2-1.87-0.2h-1.18v-4.29h15.18v4.29h-1.27c-0.86,0-1.43,0.07-1.71,0.21c-0.28,0.14-0.48,0.35-0.59,0.62
				c-0.11,0.27-0.17,0.92-0.17,1.95v16.8c0,1.04,0.07,1.71,0.21,2.01c0.14,0.3,0.36,0.52,0.65,0.64c0.29,0.13,0.95,0.19,1.99,0.19
				h0.89v4.29h-15.18v-4.29h1c0.93,0,1.57-0.08,1.9-0.22c0.33-0.15,0.56-0.36,0.69-0.65c0.13-0.28,0.19-0.94,0.19-1.98v-6.56h-11.29
				v6.56c0,1.04,0.04,1.68,0.13,1.93c0.15,0.37,0.38,0.61,0.68,0.73c0.31,0.12,0.93,0.18,1.88,0.18h1.04v4.29h-15.14v-4.29h1.03
				c0.86,0,1.47-0.08,1.81-0.22c0.34-0.15,0.58-0.36,0.7-0.62c0.13-0.27,0.19-0.85,0.19-1.76v-16.85c0-1.05-0.06-1.74-0.19-2.06
				c-0.13-0.32-0.32-0.55-0.59-0.7c-0.27-0.15-0.79-0.22-1.57-0.22h-1.39V781.49z"/>
		</g>
		<g>
			<rect x="40.47" y="679.08" class="st0" width="539.91" height="12.06"/>
		</g>
		<g>
			<path class="st1" d="M256.73,325.14h-13.62v58.73c0,14.99,1.11,18.51,1.23,18.83c0.53,1.29,1.15,1.79,1.76,2.13
				c0.31,0.13,3.12,1.16,12.7,1.16h15.83h5.61c1.38-12.27,4.94-23.99,10.65-35.02L256.73,325.14z"/>
			<path class="st1" d="M344.29,200.38c-3.52-4.88-8.53-8.45-15.31-10.9c-5.18-1.87-16.15-4.1-39.01-4.1h-46.86v69.22h41.17
				c18.82,0,32.84-1.66,41.65-4.94c8.04-2.99,14.06-7.18,17.89-12.45c3.79-5.22,5.63-11.54,5.63-19.33
				C349.44,210.91,347.76,205.19,344.29,200.38z"/>
			<path class="st1" d="M310.74,490.68c-8.98-8.33-16.49-19.08-22.31-31.92c-1.43-3.14-2.68-6.34-3.76-9.59v14.6v10.04h-10.04
				H105.67H95.63v-10.04v-47.74v-10.04h10.04h15.43c9.31,0,12.24-1.25,12.74-1.51c1.21-0.62,2.08-1.42,2.75-2.55
				c0.19-1.16,0.6-4.85,0.6-14.85V192.9c0-8.82-0.91-11.86-1.19-12.58c-0.1-0.26-0.18-0.42-0.24-0.52l-0.24-0.08l-0.41-0.19
				c-2.61-1.19-5.76-1.8-9.36-1.82l-6.78,0.24l-0.18,0.01h-0.18h-12.94H95.63v-5.79c-15.27,23.04-29.23,48.14-41.43,75.02
				c-77.09,169.85-54.76,346.04,49.87,393.52c54.18,24.59,119.8,9.84,181.2-33.68l-13.22-72.24l-1.71-9.35l9.24-2.22l46.47-11.18
				l8.45-2.03l3.23,8.07c3.95,9.88,8.8,19.17,14.49,27.84c6.26-7.13,12.39-14.58,18.37-22.31c-6.6-2.54-14.09-5.72-22.67-9.66
				C332.02,506.66,319.52,498.83,310.74,490.68z"/>
			<path class="st1" d="M318.57,108.64c14.14,0,29.76,1.29,46.44,3.82c17.58,2.68,33.72,8.66,47.97,17.8
				c14.45,9.26,25.86,21.18,33.9,35.43c8.09,14.33,12.19,30.64,12.19,48.47c0,29.14-10.61,53.12-31.54,71.28
				c-9.46,8.21-19.83,15.08-31,20.62c7.27-0.87,14.7-1.32,22.31-1.32c17.46,0,34.12,2.53,49.85,7.56
				c28.42-131.48-2.87-249.2-85.48-286.69C311.99-6.7,220.97,28.98,145.8,108.64H318.57z"/>
		</g>
		<path class="st1" d="M429.26,381.21l3.89,4.53l0.11,0.13l0.11,0.14l2.93,3.66c2.27,2.76,4.4,5.09,6.38,7
			c1.47-3.66,2.91-7.32,4.29-10.98C441.17,383.64,435.25,382.15,429.26,381.21z"/>
		<path class="st0" d="M105.67,118.68h212.9c13.7,0,28.67,1.24,44.93,3.71c16.26,2.47,30.95,7.92,44.06,16.33
			c13.12,8.41,23.31,19.05,30.58,31.91c7.26,12.86,10.89,27.38,10.89,43.54c0,26.22-9.36,47.46-28.08,63.7
			c-18.72,16.25-40.86,26.84-66.42,31.79l71,82.63l2.97,3.71c4.61,5.61,8.82,9.77,12.62,12.49c3.79,2.72,7.58,4.66,11.38,5.81
			c3.79,1.16,9.07,1.73,15.83,1.73h14.84v47.74H372.59L261.77,315.1h-28.7v68.77c0,11.87,0.66,19.42,1.98,22.64
			c1.32,3.22,3.42,5.61,6.31,7.18c2.88,1.57,8.7,2.35,17.44,2.35h15.83v47.74H105.67v-47.74h15.43c8.13,0,13.89-0.87,17.29-2.6
			c3.4-1.73,5.93-4.33,7.59-7.79c0.83-1.98,1.24-8.16,1.24-18.55V192.9c0-7.58-0.62-12.99-1.87-16.2c-1.24-3.22-3.28-5.32-6.1-6.31
			c-3.98-1.81-8.55-2.72-13.69-2.72l-6.97,0.25h-12.94V118.68z M233.07,175.33v89.31h51.21c20.12,0,35.17-1.86,45.15-5.57
			c9.98-3.71,17.48-9.03,22.51-15.96c5.03-6.93,7.55-15.34,7.55-25.23c0-9.07-2.35-16.86-7.05-23.38
			c-4.7-6.51-11.38-11.34-20.04-14.47c-8.66-3.13-22.8-4.7-42.43-4.7H233.07z"/>
		<g>
			<path class="st0" d="M376.63,319.97l43.1,50.16c19.9,1.02,38.77,7.39,56.6,19.16c19.52,12.88,36.97,33.2,52.35,60.95l46.47-13.17
				l-29.82-116.3H509.8l-9.69,17.4c-24.19-15.57-51.28-23.36-81.26-23.36C403.99,314.8,389.92,316.53,376.63,319.97z"/>
			<path class="st0" d="M565.22,501.05c-14.73-16.44-38.73-29.83-72.01-40.18v2.9v10.04h-10.04H372.59h-5.04l-3.01-4.04
				l-66.89-89.74c-5.34,11.8-8.02,24.35-8.02,37.66c0,12.93,2.65,25.23,7.95,36.91c5.3,11.68,11.96,21.25,20,28.71
				c8.03,7.45,19.54,14.62,34.53,21.5c14.99,6.88,26.87,11.56,35.65,14.04l57.94,16.88c24.35,6.96,41.42,14,51.19,21.12
				c9.61,7.12,14.41,15.65,14.41,25.59c0,5.96-2.07,11.77-6.21,17.39c-4.14,5.63-10.31,10.02-18.51,13.17
				c-8.2,3.15-18.51,4.72-30.94,4.72c-27.67,0-53.06-9.15-76.17-27.46c-23.11-18.3-40.13-41.13-51.07-68.46l-46.47,11.18
				l24.6,134.44h37.03l10.93-24.85c16.73,11.1,32.8,19.01,48.21,23.73c15.41,4.72,32.31,7.08,50.7,7.08
				c39.59,0,72.73-11.44,99.4-34.32c23.86-20.72,35.78-46.09,35.78-76.1C588.58,539.44,580.79,518.79,565.22,501.05z"/>
		</g>
	</g>
</g>
</svg>
